<svg width="96" height="96" xmlns="http://www.w3.org/2000/svg" xmlns:xlink="http://www.w3.org/1999/xlink" overflow="hidden"><defs><clipPath id="clip0"><rect x="908" y="418" width="96" height="96"/></clipPath></defs><g clip-path="url(#clip0)" transform="translate(-908 -418)"><path d="M955.986 428C935.01 427.999 918.006 445.003 918.005 465.979 918.004 486.955 935.008 503.959 955.984 503.96 976.96 503.961 993.964 486.957 993.965 465.981 993.965 465.98 993.965 465.978 993.965 465.977 993.973 445.011 976.982 428.008 956.016 428 956.006 428 955.996 428 955.986 428ZM966.034 477.532C965.335 478.773 964.364 479.841 963.194 480.653 961.927 481.527 960.517 482.173 959.028 482.562 957.398 483 955.716 483.218 954.028 483.21 952.325 483.216 950.624 483.066 948.948 482.761 947.545 482.535 946.188 482.081 944.931 481.417L944.931 476.3C946.266 477.232 947.755 477.918 949.331 478.326 950.916 478.76 952.551 478.983 954.194 478.99 954.985 478.984 955.775 478.906 956.552 478.757 957.375 478.609 958.167 478.323 958.894 477.911 959.615 477.5 960.229 476.926 960.687 476.234 961.188 475.429 961.436 474.492 961.399 473.545 961.428 472.576 961.194 471.618 960.72 470.772 960.258 470.001 959.606 469.361 958.827 468.913 957.94 468.408 956.975 468.055 955.972 467.867 954.796 467.638 953.599 467.527 952.401 467.535L949.315 467.535 949.315 463.285 952.237 463.285C953.302 463.293 954.365 463.192 955.409 462.985 956.293 462.818 957.138 462.486 957.899 462.006 958.579 461.57 959.139 460.971 959.526 460.262 959.935 459.462 960.135 458.571 960.107 457.673 960.14 456.857 959.951 456.048 959.56 455.332 959.218 454.748 958.737 454.257 958.16 453.904 957.592 453.56 956.968 453.318 956.316 453.19 955.682 453.06 955.038 452.993 954.391 452.99 952.997 453.003 951.612 453.205 950.273 453.59 948.878 453.969 947.554 454.574 946.355 455.382L946.355 450.671C947.598 450.012 948.925 449.526 950.3 449.226 951.799 448.898 953.33 448.737 954.864 448.745 956.235 448.742 957.601 448.904 958.933 449.226 960.175 449.517 961.359 450.016 962.433 450.704 963.43 451.346 964.265 452.21 964.874 453.227 965.503 454.327 965.819 455.579 965.786 456.846 965.865 458.838 965.183 460.785 963.878 462.292 962.48 463.779 960.651 464.789 958.648 465.18 959.733 465.292 960.795 465.562 961.802 465.98 962.792 466.384 963.707 466.951 964.509 467.657 965.288 468.346 965.925 469.181 966.384 470.114 966.856 471.08 967.095 472.144 967.084 473.219 967.115 474.724 966.753 476.21 966.034 477.532Z" fill="#6769E9"/></g></svg>