<svg width="96" height="96" xmlns="http://www.w3.org/2000/svg" xmlns:xlink="http://www.w3.org/1999/xlink" overflow="hidden"><defs><clipPath id="clip0"><rect x="592" y="75" width="96" height="96"/></clipPath></defs><g clip-path="url(#clip0)" transform="translate(-592 -75)"><path d="M654.8 136.3C655.3 135.3 655 134.1 654 133.6 653 133.1 651.8 133.4 651.3 134.4L647.3 141.5 650 130.8C650.3 129.7 649.6 128.6 648.5 128.4 647.4 128.1 646.3 128.8 646.1 129.9L643.8 139.1 643.8 129.1C643.8 128 642.9 127.1 641.8 127.1 640.7 127.1 639.8 128 639.8 129.1L639.8 139.8 637.5 129.9C637.3 128.8 636.2 128.2 635.1 128.4 634 128.6 633.4 129.7 633.6 130.8L636.4 142.7C636.3 144.1 636 145.5 635.7 146.7 635.7 146.7 635.7 146.6 635.6 146.6 633.9 144 631.2 141.7 628.6 141 627.6 140.7 626.6 141.3 626.3 142.3 626 143.3 626.6 144.3 627.6 144.6 628.9 144.9 630.1 146.8 631.4 148.8 633 151.3 635 154.2 638 155.9L638 166.6 646.8 166.6 646.8 155.3C650.1 153.6 650.5 146.5 650.6 143.8L654.8 136.3Z" fill="#6769E9"/><path d="M619.5 137.1 628.2 137.2C628.2 137.2 628.2 137.2 628.2 137.2 629.3 137.2 630.2 136.3 630.2 135.2 630.2 134.1 629.3 133.2 628.2 133.2L620.1 133.1 630.7 130.4C631.8 130.1 632.4 129 632.1 128 631.8 126.9 630.7 126.3 629.7 126.6L620.5 129 629.3 124.2C630.3 123.7 630.6 122.5 630.1 121.5 629.6 120.5 628.4 120.2 627.4 120.7L618 125.7 625.6 119C626.4 118.3 626.5 117 625.8 116.2 625.1 115.4 623.8 115.3 623 116L613.8 124C612.5 124.6 611.2 125 609.9 125.2 609.9 125.2 609.9 125.1 610 125.1 611.5 122.3 612.2 118.9 611.6 116.3 611.4 115.3 610.3 114.7 609.3 114.9 608.3 115.1 607.7 116.2 607.9 117.2 608.2 118.5 607.2 120.4 606.1 122.5 604.7 125.1 603.1 128.2 603 131.7L593.6 136.8 597.8 144.5 607.7 139.2C610.7 141.3 617.1 138.3 619.5 137.1Z" fill="#6769E9"/><path d="M620.6 104.5 622.7 112.9C622.9 113.8 623.7 114.4 624.6 114.4 624.8 114.4 624.9 114.4 625.1 114.3 626.2 114 626.8 113 626.6 111.9L624.7 104 630 113.5C630.4 114.2 631 114.5 631.8 114.5 632.1 114.5 632.5 114.4 632.8 114.2 633.8 113.7 634.1 112.4 633.6 111.5L629 103.2 635.8 110.5C636.2 110.9 636.7 111.1 637.3 111.1 637.8 111.1 638.3 110.9 638.7 110.6 639.5 109.8 639.5 108.6 638.8 107.8L631.5 100 640 105.7C640.3 105.9 640.7 106 641.1 106 641.7 106 642.4 105.7 642.8 105.1 643.4 104.2 643.2 102.9 642.3 102.3L632.1 95.5C631.2 94.4 630.5 93.2 629.9 92.1 629.9 92.1 630 92.1 630 92.1 633 92.8 636.5 92.7 638.9 91.4 639.8 90.9 640.1 89.8 639.6 88.9 639.1 88 638 87.7 637.1 88.2 636 88.8 633.8 88.3 631.5 87.8 628.6 87.1 625.2 86.3 621.8 87.2L614.5 79.4 608.1 85.4 615.8 93.6C614.2 97.1 618.7 102.6 620.6 104.5Z" fill="#6769E9"/><path d="M686.4 143.8 678.8 135.5C680.1 132 675.6 126.5 673.8 124.5L671.8 116.1C671.5 115 670.5 114.4 669.4 114.6 668.3 114.9 667.7 115.9 667.9 117L669.8 124.9 664.5 115.3C664 114.3 662.8 114 661.8 114.5 660.8 115 660.5 116.2 661 117.2L665.6 125.6 658.8 118.3C658 117.5 656.8 117.4 656 118.2 655.2 119 655.1 120.2 655.9 121L663.2 128.9 654.8 123.2C653.9 122.6 652.6 122.8 652 123.7 651.4 124.6 651.6 125.9 652.5 126.5L662.6 133.4C663.5 134.5 664.2 135.7 664.8 136.8 664.8 136.8 664.7 136.8 664.7 136.8 661.7 136.1 658.2 136.2 655.8 137.5 654.9 138 654.5 139.1 655 140 655.5 140.9 656.6 141.3 657.5 140.8 658.6 140.2 660.8 140.7 663.1 141.3 666 142 669.4 142.8 672.8 142L680 149.8 686.4 143.8Z" fill="#6769E9"/><path d="M645.3 101C645.5 101 645.7 101 646 100.9L653.6 98.2 644.6 104.4C643.7 105 643.5 106.3 644.1 107.2 644.5 107.8 645.1 108.1 645.7 108.1 646.1 108.1 646.5 108 646.8 107.7L654.6 102.3 648 109.8C647.3 110.6 647.4 111.9 648.2 112.6 648.6 112.9 649 113.1 649.5 113.1 650.1 113.1 650.6 112.9 651 112.4L658.1 104.3 653.3 113.3C652.8 114.3 653.1 115.5 654.1 116 654.4 116.2 654.7 116.2 655 116.2 655.7 116.2 656.4 115.8 656.8 115.1L662.6 104.3C663.6 103.3 664.7 102.5 665.8 101.8 665.8 101.8 665.8 101.9 665.8 101.9 665.4 105 665.9 108.5 667.4 110.7 668 111.6 669.1 111.8 670 111.2 670.9 110.6 671.1 109.5 670.5 108.6 669.8 107.5 670.1 105.3 670.4 102.9 670.8 100 671.2 96.5 670.1 93.2L677.1 85.2 670.5 79.4 663.1 87.9C659.5 87 654.5 92.1 652.7 94L644.5 96.9C643.5 97.3 642.9 98.4 643.3 99.5 643.7 100.5 644.5 101 645.3 101Z" fill="#6769E9"/></g></svg>