<svg width="96" height="96" xmlns="http://www.w3.org/2000/svg" xmlns:xlink="http://www.w3.org/1999/xlink" overflow="hidden"><defs><clipPath id="clip0"><rect x="718" y="72" width="96" height="96"/></clipPath></defs><g clip-path="url(#clip0)" transform="translate(-718 -72)"><path d="M800.9 111.1C800.6 111.1 800.3 111.1 800 111.1L797.4 104.1C803.4 100.7 805.5 93.1 802.2 87.1 798.8 81.1 791.2 79 785.2 82.3 782.3 83.9 780.1 86.7 779.3 89.9L770 88.9C769.3 84.5 765.2 81.4 760.8 82.1 756.8 82.7 753.9 86.1 753.9 90.1 753.9 91.5 754.3 92.9 755 94.2L743.8 105.2C741.7 103.6 739.1 102.7 736.4 102.7 729.5 102.7 723.9 108.3 723.9 115.2 723.9 122.1 729.5 127.7 736.4 127.7L738.9 142.7C734.8 144.5 732.9 149.3 734.7 153.4 736.5 157.5 741.3 159.4 745.4 157.6 749.2 156 751.1 151.8 750 147.8L758.8 143.2C764.5 149.5 774.3 150 780.7 144.3 783.9 141.4 785.8 137.2 785.8 132.9 785.8 131.8 785.7 130.6 785.4 129.5L795.1 124.5C798.1 127.9 803.2 128.2 806.6 125.2 810 122.2 810.3 117.1 807.3 113.7 805.4 112.1 803.2 111.1 800.9 111.1L800.9 111.1ZM800.9 114.1C802.2 114.1 803.2 115.1 803.2 116.4 803.2 117.7 802.2 118.7 800.9 118.7 799.6 118.7 798.6 117.7 798.6 116.4 798.6 116.4 798.6 116.4 798.6 116.4 798.6 115.1 799.6 114.1 800.9 114.1L800.9 114.1ZM791.3 85.6C793.2 85.6 794.8 87.2 794.8 89.1 794.8 91 793.2 92.6 791.3 92.6 789.4 92.6 787.8 91 787.8 89.1 787.8 89.1 787.8 89.1 787.8 89.1 787.8 87.2 789.3 85.6 791.3 85.6ZM784.2 97C784.2 96.5 784.5 95.9 784.9 95.6 785.9 94.9 787.1 94.3 788.3 94 789.2 93.7 790.2 93.6 791.2 93.6 792.2 93.6 793.2 93.8 794.1 94 795.3 94.3 796.5 94.9 797.5 95.7 797.9 96 798.2 96.6 798.2 97.1L798.2 99.8 784.2 99.8 784.2 97ZM761.9 85C763.2 85 764.2 86 764.2 87.3 764.2 88.6 763.2 89.6 761.9 89.6 760.6 89.6 759.6 88.6 759.6 87.3 759.6 87.3 759.6 87.3 759.6 87.3 759.6 86.1 760.6 85 761.9 85L761.9 85ZM757.2 92.5C757.2 92.1 757.4 91.8 757.7 91.6 758.4 91.1 759.2 90.8 760 90.6 760.6 90.4 761.3 90.3 761.9 90.3 762.5 90.3 763.2 90.4 763.8 90.6 764.6 90.8 765.3 91.2 766 91.7 766.3 91.9 766.5 92.3 766.5 92.6L766.5 94.4 757.3 94.4 757.3 92.5ZM736.2 107.6C738.1 107.6 739.7 109.2 739.7 111.1 739.7 113 738.1 114.6 736.2 114.6 734.3 114.6 732.7 113 732.7 111.1 732.7 111.1 732.7 111.1 732.7 111.1 732.8 109.2 734.3 107.6 736.2 107.6L736.2 107.6ZM729.2 121.7 729.2 119C729.2 118.5 729.5 117.9 729.9 117.6 730.9 116.9 732.1 116.3 733.3 116 734.2 115.7 735.2 115.6 736.2 115.6 737.2 115.6 738.2 115.8 739.1 116 740.3 116.3 741.5 116.9 742.5 117.7 742.9 118 743.2 118.6 743.2 119.1L743.2 121.8 729.2 121.7ZM746.5 154.3 737.2 154.3 737.2 152.5C737.2 152.1 737.4 151.8 737.7 151.6 738.4 151.1 739.2 150.7 740 150.5 740.6 150.3 741.3 150.2 741.9 150.2 742.5 150.2 743.2 150.3 743.8 150.5 744.6 150.7 745.3 151.1 746 151.6 746.3 151.8 746.5 152.2 746.5 152.5L746.5 154.3ZM739.5 147.3C739.5 146 740.5 145 741.8 145 743.1 145 744.1 146 744.1 147.3 744.1 148.6 743.1 149.6 741.8 149.6 740.6 149.7 739.6 148.6 739.5 147.3L739.5 147.3ZM747.5 144.5C746.2 143.2 744.4 142.4 742.6 142.2L740.1 127.2C742.5 126.4 744.6 124.9 746.1 122.9L755.4 127.8C753.9 131.8 754.2 136.3 756.2 140.1L747.5 144.5ZM757.3 124.1 748.1 119.3C748.5 118 748.7 116.7 748.7 115.3 748.7 112.7 747.9 110.2 746.4 108.1L757.6 97.2C761.4 99.5 766.4 98.4 768.7 94.6 769 94.1 769.2 93.6 769.4 93.1L778.7 94.1C778.9 97.7 780.7 101.1 783.6 103.3L775.4 118.6C768.9 116 761.4 118.3 757.3 124.1L757.3 124.1ZM774.3 127.8C774.3 130.2 772.3 132.1 769.9 132.1 767.5 132.1 765.6 130.2 765.6 127.8 765.6 125.4 767.5 123.5 769.9 123.5 769.9 123.5 769.9 123.5 770 123.5 772.4 123.5 774.3 125.4 774.3 127.8L774.3 127.8ZM778.6 140.9 761.3 140.9 761.3 137.6C761.3 136.9 761.6 136.3 762.2 135.9 763.5 135 764.9 134.3 766.4 133.8 767.6 133.5 768.8 133.3 770 133.3 771.2 133.3 772.4 133.5 773.6 133.8 775.1 134.2 776.6 134.9 777.8 135.9 778.3 136.3 778.7 137 778.7 137.6L778.6 140.9ZM792.8 119.3C792.8 119.9 792.9 120.5 793.1 121.1L783.9 125.9C782.8 123.7 781.1 121.9 779.1 120.5L787.3 105.2C788.6 105.7 790 105.9 791.4 105.9 792.2 105.9 793 105.8 793.8 105.7L796.4 112.7C794 114.1 792.7 116.6 792.8 119.3ZM805.5 123.3 796.2 123.3 796.2 121.5C796.2 121.1 796.4 120.8 796.7 120.6 797.4 120.1 798.2 119.7 799 119.5 799.6 119.3 800.3 119.2 800.9 119.2 801.5 119.2 802.2 119.3 802.8 119.5 803.6 119.7 804.3 120.1 805 120.6 805.3 120.8 805.5 121.2 805.5 121.5L805.5 123.3Z" fill="#6769E9"/></g></svg>