<svg width="96" height="96" xmlns="http://www.w3.org/2000/svg" xmlns:xlink="http://www.w3.org/1999/xlink" overflow="hidden"><defs><clipPath id="clip0"><rect x="993" y="417" width="96" height="96"/></clipPath></defs><g clip-path="url(#clip0)" transform="translate(-993 -417)"><path d="M1036.96 463C1036.19 464.118 1035.42 465.151 1034.67 466.1 1033.92 467.049 1033.13 468 1032.31 468.955L1042.27 468.955 1042.27 454.416C1041.23 456.253 1040.28 457.864 1039.42 459.247 1038.56 460.63 1037.74 461.881 1036.96 463Z" fill="#6769E9"/><path d="M1040.99 427C1020.01 426.999 1003.01 444.003 1003.01 464.979 1003 485.955 1020.01 502.959 1040.98 502.96 1061.96 502.961 1078.96 485.957 1078.96 464.981 1078.96 464.981 1078.96 464.98 1078.96 464.98 1078.97 444.014 1061.99 427.009 1041.02 427 1041.01 427 1041 427 1040.99 427ZM1052.57 473.773 1048.02 473.773 1048.02 480.912 1042.27 480.912 1042.27 473.773 1026.64 473.773 1026.64 469.225C1028.18 467.542 1029.7 465.771 1031.18 463.912 1032.67 462.053 1034.06 460.166 1035.37 458.251 1036.67 456.336 1037.89 454.433 1039.01 452.54 1040.12 450.647 1041.11 448.816 1041.97 447.045L1048.02 447.045 1048.02 468.959 1052.57 468.959Z" fill="#6769E9"/></g></svg>