<svg width="96" height="96" xmlns="http://www.w3.org/2000/svg" xmlns:xlink="http://www.w3.org/1999/xlink" overflow="hidden"><defs><clipPath id="clip0"><rect x="348" y="79" width="96" height="96"/></clipPath></defs><g clip-path="url(#clip0)" transform="translate(-348 -79)"><path d="M436.9 83.4C426.3 90.4 411.6 95.9 395.4 99 381.1 101.7 366.7 102.2 355 100.4L355 104.4C357.1 104.7 359.3 104.9 361.5 105.1L364.3 125.7 373.4 118.4 384.1 123 381.7 104.9C383.7 104.7 385.6 104.5 387.7 104.2L390.4 124.1 399.5 116.8 410.2 121.4 407.3 100.3C409.3 99.8 411.2 99.2 413.1 98.6L415.4 115.5 425 108.2 435.7 112.8 432.7 90.5C434.2 89.7 435.6 88.8 437 88L436.9 83.4Z" fill="#6769E9"/><path d="M437 143C424.6 145.5 408.9 145 392.8 141.8 378.6 138.9 365.1 134 355 128L355 132.6C356.6 133.5 358.3 134.4 360 135.2L357.5 158.1 368.1 153.3 377.4 160.4 379.4 142.7C381.3 143.3 383.3 143.8 385.3 144.3L382.7 166 393.3 161.2 402.6 168.3 404.9 147.8C406.9 148 408.9 148.2 410.9 148.3L408.7 167.9 419.3 163 428.6 170.1 431.1 147.9C433.1 147.7 435.1 147.4 437 147L437 143Z" fill="#6769E9"/></g></svg>