<svg width="96" height="96" xmlns="http://www.w3.org/2000/svg" xmlns:xlink="http://www.w3.org/1999/xlink" overflow="hidden"><defs><clipPath id="clip0"><rect x="824" y="410" width="96" height="96"/></clipPath></defs><g clip-path="url(#clip0)" transform="translate(-824 -410)"><path d="M871.986 420C851.011 420 834.007 437.004 834.007 457.979 834.007 478.954 851.011 495.958 871.986 495.958 892.961 495.958 909.965 478.954 909.965 457.979 909.965 457.978 909.965 457.977 909.965 457.976 909.972 437.01 892.981 420.007 872.015 420 872.005 420 871.996 420 871.986 420ZM882.844 475.009 861.129 475.009 861.129 471.822C861.109 470.486 861.357 469.16 861.859 467.922 862.351 466.754 863.029 465.673 863.867 464.722 864.759 463.712 865.756 462.8 866.84 462 867.969 461.159 869.187 460.34 870.492 459.543 871.585 458.888 872.622 458.144 873.592 457.318 874.321 456.696 874.969 455.984 875.521 455.2 875.975 454.551 876.307 453.826 876.502 453.058 876.684 452.274 876.773 451.472 876.767 450.667 876.768 449.968 876.656 449.273 876.435 448.609 876.227 447.969 875.894 447.376 875.455 446.866 874.998 446.347 874.431 445.937 873.795 445.666 873.055 445.354 872.258 445.202 871.455 445.218 869.887 445.212 868.34 445.576 866.939 446.281 865.466 447.029 864.112 447.991 862.922 449.136L862.922 443.956C864.072 442.885 865.451 442.09 866.955 441.632 868.578 441.151 870.263 440.915 871.955 440.932 873.306 440.923 874.651 441.125 875.939 441.532 877.125 441.901 878.229 442.492 879.193 443.275 880.13 444.048 880.88 445.025 881.385 446.13 881.935 447.355 882.208 448.687 882.185 450.03 882.197 451.238 882.057 452.442 881.768 453.615 881.485 454.716 881.023 455.763 880.4 456.714 879.706 457.761 878.874 458.71 877.928 459.537 876.763 460.553 875.52 461.474 874.209 462.292 873.013 463.045 871.95 463.743 871.021 464.384 870.179 464.955 869.385 465.594 868.646 466.293 868.045 466.856 867.546 467.519 867.17 468.252 866.832 468.951 866.661 469.718 866.67 470.494L882.84 470.494Z" fill="#6769E9"/></g></svg>