<svg width="96" height="96" xmlns="http://www.w3.org/2000/svg" xmlns:xlink="http://www.w3.org/1999/xlink" overflow="hidden"><defs><clipPath id="clip0"><rect x="466" y="222" width="96" height="96"/></clipPath></defs><g clip-path="url(#clip0)" transform="translate(-466 -222)"><path d="M544.951 253.757C545.408 255.046 545.683 256.392 545.768 257.757L550 257.757 550 281C549.997 284.312 547.312 286.997 544 287L533.179 287 533.07 299.054C533.031 302.343 530.359 304.991 527.07 305L501 305 501 257.757 517.05 257.757C515.756 256.525 514.568 255.187 513.498 253.757L497 253.757 497 297.348 477.48 291.648 491.46 243.748 512.69 249.948 512.918 249.462C513.438 248.364 514.107 247.343 514.905 246.427L488.741 238.79 472.52 294.37 497 301.515 497 309 528.534 309C533.21 308.991 537.677 307.066 540.894 303.672L549.359 294.709C552.345 291.557 554.007 287.378 554 283.036L554 253.757ZM546.451 291.962 537.985 300.926C537.531 301.398 537.043 301.834 536.523 302.232 536.875 301.221 537.059 300.159 537.07 299.089L537.144 291 544 291C545.307 291 546.602 290.743 547.81 290.242 547.406 290.852 546.951 291.428 546.451 291.962Z" fill="#6769E9"/><path d="M525.071 258.8 521.938 265.492C521.325 266.729 521.832 268.229 523.069 268.842 524.306 269.454 525.806 268.948 526.419 267.711 526.435 267.678 526.45 267.645 526.465 267.612L529.6 260.921C533.182 262.23 536.992 262.797 540.8 262.587L540.938 262.579C542.361 259.275 541.983 255.471 539.938 252.512L542.993 242.161 545.542 241.772C546.417 241.639 547.128 240.996 547.349 240.139L547.941 237.848C548.175 236.933 547.805 235.97 547.018 235.448 542.822 232.684 538.248 230.544 533.438 229.093 532.532 228.821 531.552 229.154 531 229.922L529.621 231.844C529.104 232.562 529.065 233.519 529.521 234.277L530.855 236.484 524.913 245.484C521.33 245.807 518.165 247.951 516.537 251.159 518.828 254.264 521.732 256.865 525.071 258.8Z" fill="#6769E9"/></g></svg>