<svg width="96" height="96" xmlns="http://www.w3.org/2000/svg" xmlns:xlink="http://www.w3.org/1999/xlink" overflow="hidden"><defs><clipPath id="clip0"><rect x="352" y="224" width="96" height="96"/></clipPath></defs><g clip-path="url(#clip0)" transform="translate(-352 -224)"><path d="M366 300 434 300 434 306 366 306Z" fill="#6769E9"/><path d="M366 238 374 238 374 296 366 296Z" fill="#6769E9"/><path d="M416 288 434 288 434 296 416 296Z" fill="#6769E9"/><path d="M416 254 434 254 434 284 416 284Z" fill="#6769E9"/><path d="M416 242 434 242 434 250 416 250Z" fill="#6769E9"/><path d="M404 260C402.9 260 402 259.1 402 258 402 256.9 402.9 256 404 256 405.1 256 406 256.9 406 258 406 259.1 405.1 260 404 260ZM404 292C402.9 292 402 291.1 402 290 402 288.9 402.9 288 404 288 405.1 288 406 288.9 406 290 406 291.1 405.1 292 404 292ZM412 252 396 252 396 296 412 296 412 252Z" fill="#6769E9"/><path d="M388 254 382 254 382 248 388 248 388 254ZM392 244 378 244 378 296 392 296 392 244Z" fill="#6769E9"/></g></svg>