<svg width="96" height="96" xmlns="http://www.w3.org/2000/svg" xmlns:xlink="http://www.w3.org/1999/xlink" overflow="hidden"><defs><clipPath id="clip0"><rect x="532" y="564" width="96" height="96"/></clipPath></defs><g clip-path="url(#clip0)" transform="translate(-532 -564)"><path d="M614 634 546 634 546 590 614 590 614 634ZM585 638 575 638C574.4 638 574 637.6 574 637 574 636.4 574.4 636 575 636L585 636C585.6 636 586 636.4 586 637 586 637.6 585.6 638 585 638ZM580 586C580.6 586 581 586.4 581 587 581 587.6 580.6 588 580 588 579.4 588 579 587.6 579 587 579 586.4 579.4 586 580 586ZM616 584 544 584C541.8 584 540 585.8 540 588L540 636C540 638.2 541.8 640 544 640L616 640C618.2 640 620 638.2 620 636L620 588C620 585.8 618.2 584 616 584Z" fill="#6769E9"/></g></svg>