<svg width="96" height="96" xmlns="http://www.w3.org/2000/svg" xmlns:xlink="http://www.w3.org/1999/xlink" overflow="hidden"><defs><clipPath id="clip0"><rect x="744" y="410" width="96" height="96"/></clipPath></defs><g clip-path="url(#clip0)" transform="translate(-744 -410)"><path d="M791.986 420C771.011 420 754.007 437.004 754.007 457.979 754.007 478.954 771.011 495.958 791.986 495.958 812.961 495.958 829.965 478.954 829.965 457.979 829.965 457.978 829.965 457.976 829.965 457.975 829.972 437.009 812.982 420.007 792.016 420 792.006 420 791.996 420 791.986 420ZM796.152 474.1 790.375 474.1 790.375 446.509C789.887 446.842 789.372 447.163 788.83 447.472 788.288 447.782 787.729 448.059 787.154 448.302 786.533 448.546 785.88 448.773 785.195 448.983 784.51 449.193 783.758 449.398 782.937 449.597L782.937 444.982C783.49 444.827 783.994 444.672 784.447 444.517 784.9 444.362 785.349 444.207 785.793 444.052 786.234 443.875 786.678 443.693 787.121 443.504 787.564 443.315 788.006 443.134 788.449 442.956 788.869 442.735 789.295 442.513 789.726 442.292 790.157 442.071 790.584 441.837 791.006 441.592 791.473 441.349 791.932 441.083 792.383 440.792 792.834 440.501 793.294 440.235 793.762 439.992L796.152 439.992Z" fill="#6769E9"/></g></svg>