<svg width="96" height="96" xmlns="http://www.w3.org/2000/svg" xmlns:xlink="http://www.w3.org/1999/xlink" overflow="hidden"><defs><clipPath id="clip0"><rect x="332" y="562" width="96" height="96"/></clipPath></defs><g clip-path="url(#clip0)" transform="translate(-332 -562)"><path d="M380 635C370 635 362 627 362 617 362 607 370 599 380 599 390 599 398 607 398 617 398 627 390 635 380 635ZM360 603 348 603 348 595 360 595 360 603ZM416 587 396 587 390 577 370 577 364 587 344 587C341.8 587 340 588.8 340 591L340 639C340 641.2 341.8 643 344 643L416 643C418.2 643 420 641.2 420 639L420 591C420 588.8 418.2 587 416 587Z" fill="#6769E9"/><path d="M380 607C374.4 607 370 611.4 370 617 370 622.6 374.4 627 380 627 385.6 627 390 622.6 390 617 390 611.4 385.6 607 380 607ZM380 631C372.2 631 366 624.8 366 617 366 609.2 372.2 603 380 603 387.8 603 394 609.2 394 617 394 624.8 387.8 631 380 631Z" fill="#6769E9"/></g></svg>