<svg width="96" height="96" xmlns="http://www.w3.org/2000/svg" xmlns:xlink="http://www.w3.org/1999/xlink" overflow="hidden"><defs><clipPath id="clip0"><rect x="466" y="74" width="96" height="96"/></clipPath></defs><g clip-path="url(#clip0)" transform="translate(-466 -74)"><path d="M543.03 130.53C543.03 134.827 539.547 138.31 535.25 138.31 530.953 138.31 527.47 134.827 527.47 130.53 527.47 126.233 530.953 122.75 535.25 122.75 539.547 122.75 543.03 126.233 543.03 130.53Z" fill="#6769E9"/><path d="M501.54 130.53C501.54 134.827 498.057 138.31 493.76 138.31 489.463 138.31 485.98 134.827 485.98 130.53 485.98 126.233 489.463 122.75 493.76 122.75 498.057 122.75 501.54 126.233 501.54 130.53Z" fill="#6769E9"/><path d="M549.26 145.05C547.015 143.304 544.419 142.066 541.65 141.42 539.569 140.812 537.417 140.476 535.25 140.42 533.081 140.415 530.924 140.753 528.86 141.42 526.794 141.97 524.82 142.819 523 143.94L522.64 144.35C525.547 145.135 528.268 146.495 530.64 148.35 532.505 149.72 533.592 151.906 533.56 154.22L533.56 156 550.81 156 550.81 148.17C550.844 146.937 550.263 145.768 549.26 145.05Z" fill="#6769E9"/><path d="M495.48 154.22C495.482 151.967 496.518 149.84 498.29 148.45L498.4 148.35 498.53 148.26C500.93 146.552 503.587 145.235 506.4 144.36 506.2 144.15 506.01 143.93 505.83 143.71 504.056 142.679 502.143 141.908 500.15 141.42 498.072 140.813 495.924 140.477 493.76 140.42 491.587 140.414 489.427 140.752 487.36 141.42 484.63 142.173 482.054 143.402 479.75 145.05 478.78 145.797 478.205 146.946 478.19 148.17L478.19 156 495.48 156Z" fill="#6769E9"/><path d="M498.94 162 498.94 154.22C498.945 152.996 499.522 151.845 500.5 151.11 502.799 149.454 505.376 148.225 508.11 147.48 510.173 146.808 512.33 146.471 514.5 146.48 516.668 146.531 518.82 146.867 520.9 147.48 523.672 148.117 526.27 149.357 528.51 151.11 529.517 151.821 530.102 152.988 530.07 154.22L530.07 162Z" fill="#6769E9"/><path d="M522.28 136.58C522.28 140.877 518.797 144.36 514.5 144.36 510.203 144.36 506.72 140.877 506.72 136.58 506.72 132.283 510.203 128.8 514.5 128.8 518.797 128.8 522.28 132.283 522.28 136.58Z" fill="#6769E9"/><path d="M547 82 482.25 82C480.041 82 478.25 83.7909 478.25 86L478.25 108C478.25 110.209 480.041 112 482.25 112L497 112 497 118 503.3 112 510.1 112 514 118 517.6 112 524.7 112 531 118 531 112 547 112C549.209 112 551 110.209 551 108L551 86C551 83.7909 549.209 82 547 82ZM488.25 91 535 91 535 93 488.25 93ZM525 103 488.25 103 488.25 101 525 101ZM541 98 488.25 98 488.25 96 541 96Z" fill="#6769E9"/></g></svg>