<svg width="96" height="96" xmlns="http://www.w3.org/2000/svg" xmlns:xlink="http://www.w3.org/1999/xlink" overflow="hidden"><defs><clipPath id="clip0"><rect x="425" y="567" width="96" height="96"/></clipPath></defs><g clip-path="url(#clip0)" transform="translate(-425 -567)"><path d="M501 627 445 627 445 593 501 593 501 627ZM507 591C507 588.8 505.2 587 503 587L443 587C440.8 587 439 588.8 439 591L439 633 507 633 507 591Z" fill="#6769E9"/><path d="M479 637 479 638C479 638.6 478.6 639 478 639L468 639C467.4 639 467 638.6 467 638L467 637 427 637 427 639C427 641.2 428.8 643 431 643L515 643C517.2 643 519 641.2 519 639L519 637 479 637Z" fill="#6769E9"/></g></svg>