<svg width="378" height="378" xmlns="http://www.w3.org/2000/svg" xmlns:xlink="http://www.w3.org/1999/xlink" overflow="hidden"><defs><clipPath id="clip0"><rect x="467" y="-5" width="378" height="378"/></clipPath></defs><g clip-path="url(#clip0)" transform="translate(-467 5)"><path d="M498.5 61.9375 498.5 306.062 813.5 306.062 813.5 61.9375ZM770.188 85.5625C774.537 85.5625 778.062 89.0881 778.062 93.4375 778.062 97.7869 774.537 101.312 770.188 101.312 765.838 101.312 762.312 97.7869 762.312 93.4375 762.312 89.0881 765.838 85.5625 770.188 85.5625ZM742.625 85.5625C746.974 85.5625 750.5 89.0881 750.5 93.4375 750.5 97.7869 746.974 101.312 742.625 101.312 738.276 101.312 734.75 97.7869 734.75 93.4375 734.75 89.0881 738.276 85.5625 742.625 85.5625ZM715.062 85.5625C719.412 85.5625 722.938 89.0881 722.938 93.4375 722.938 97.7869 719.412 101.312 715.062 101.312 710.713 101.312 707.188 97.7869 707.188 93.4375 707.188 89.0881 710.713 85.5625 715.062 85.5625ZM789.875 282.438 522.125 282.438 522.125 124.938 789.875 124.938Z" fill="#FFFFFF"/><path d="M647.141 177.85C647.141 193.616 634.36 206.396 618.594 206.396 602.828 206.396 590.047 193.616 590.047 177.85 590.047 162.084 602.828 149.303 618.594 149.303 634.36 149.303 647.141 162.084 647.141 177.85Z" fill="#FFFFFF"/><path d="M675.688 270.625 675.688 242.078C675.594 237.608 673.498 233.416 669.978 230.659 661.702 224.321 652.236 219.71 642.144 217.099 634.511 214.762 626.576 213.56 618.594 213.531 610.62 213.668 602.7 214.868 595.044 217.099 585.065 220.011 575.653 224.596 567.209 230.659 563.689 233.416 561.593 237.608 561.5 242.078L561.5 270.625Z" fill="#FFFFFF"/><path d="M671.947 145.137 746.366 145.137C748.662 145.15 750.513 147.022 750.5 149.319 750.5 149.319 750.5 149.319 750.5 149.319L750.5 199.589C750.513 201.885 748.662 203.757 746.366 203.77 746.366 203.77 746.366 203.77 746.366 203.77L700.888 203.77 684.35 220.528 684.35 203.77 671.947 203.77C669.651 203.757 667.799 201.885 667.812 199.589 667.812 199.589 667.812 199.589 667.812 199.589L667.812 149.319C667.799 147.022 669.651 145.15 671.947 145.137 671.947 145.137 671.947 145.137 671.947 145.137Z" fill="#FFFFFF"/></g></svg>