<svg width="378" height="378" xmlns="http://www.w3.org/2000/svg" xmlns:xlink="http://www.w3.org/1999/xlink" overflow="hidden"><defs><clipPath id="clip0"><rect x="103" y="-4" width="378" height="378"/></clipPath></defs><g clip-path="url(#clip0)" transform="translate(-103 4)"><path d="M459.737 138.931 439.263 131.45 439.263 88.5312 459.737 79.8687 321.138 28.6813 152.613 87.7437C136.469 95.6187 136.075 117.275 136.075 134.994 136.075 140.9 136.863 146.806 138.044 152.319 124.656 160.981 124.262 181.062 124.262 197.994 124.262 211.775 127.412 224.375 136.075 232.25 134.106 238.944 135.288 247.212 135.288 257.056 135.288 274.775 140.012 290.919 155.762 296.431L265.225 341.713 458.95 261.388 438.475 253.906 438.475 210.594 458.95 201.931 427.45 190.119 427.45 152.319 459.737 138.931ZM157.337 115.306 266.8 158.225 423.906 94.8313 423.906 128.694 266.8 194.056 157.337 150.744 157.337 115.306ZM423.119 251.15 266.013 316.119 156.156 272.806 156.156 242.094 254.2 282.256 423.513 215.319 423.119 251.15ZM412.094 192.087 254.987 257.056 145.525 213.744 145.525 178.306 258.138 223.194 412.487 158.619 412.487 192.087Z" fill="#FFFFFF"/></g></svg>