<svg width="378" height="378" xmlns="http://www.w3.org/2000/svg" xmlns:xlink="http://www.w3.org/1999/xlink" overflow="hidden"><defs><clipPath id="clip0"><rect x="107" y="265" width="378" height="378"/></clipPath></defs><g clip-path="url(#clip0)" transform="translate(-107 -265)"><path d="M327.5 493.375 138.5 493.375 138.5 367.375 327.5 367.375 327.5 493.375ZM335.375 343.75 130.625 343.75C121.963 343.75 114.875 350.837 114.875 359.5L114.875 501.25C114.875 509.913 121.963 517 130.625 517L209.375 517 209.375 540.625 173.938 540.625 173.938 564.25 292.062 564.25 292.062 540.625 256.625 540.625 256.625 517 335.375 517C344.038 517 351.125 509.913 351.125 501.25L351.125 359.5C351.125 350.837 344.038 343.75 335.375 343.75Z" fill="#FFFFFF"/><path d="M461.375 383.125 382.625 383.125 382.625 359.5 461.375 359.5 461.375 383.125ZM461.375 422.5 382.625 422.5 382.625 398.875 461.375 398.875 461.375 422.5ZM422 540.625C415.306 540.625 410.188 535.506 410.188 528.812 410.188 522.119 415.306 517 422 517 428.694 517 433.812 522.119 433.812 528.812 433.812 535.506 428.694 540.625 422 540.625ZM461.375 343.75 382.625 343.75C373.963 343.75 366.875 350.837 366.875 359.5L366.875 548.5C366.875 557.162 373.963 564.25 382.625 564.25L461.375 564.25C470.037 564.25 477.125 557.162 477.125 548.5L477.125 359.5C477.125 350.837 470.037 343.75 461.375 343.75Z" fill="#FFFFFF"/></g></svg>