<svg width="378" height="378" xmlns="http://www.w3.org/2000/svg" xmlns:xlink="http://www.w3.org/1999/xlink" overflow="hidden"><defs><clipPath id="clip0"><rect x="501" y="285" width="378" height="378"/></clipPath></defs><g clip-path="url(#clip0)" transform="translate(-501 -285)"><path d="M708.703 438.759 674.014 438.759C670.752 438.759 668.107 441.404 668.107 444.666 668.107 447.927 670.752 450.572 674.014 450.572L708.703 450.572C711.965 450.572 714.609 447.927 714.609 444.666 714.609 441.404 711.965 438.759 708.703 438.759Z" fill="#FFFFFF"/><path d="M691.339 470.062C697.994 470.056 703.503 464.891 703.939 458.25L678.778 458.25C679.194 464.884 684.691 470.055 691.339 470.062Z" fill="#FFFFFF"/><path d="M691.339 326.107 691.339 326.107C663.839 326.295 641.508 348.382 641.018 375.878L641.018 377.61C641.151 383.649 642.337 389.619 644.522 395.25 646.557 400.511 649.517 405.365 653.263 409.582 657.933 415.479 661.897 421.902 665.076 428.719 665.736 430.03 667.072 430.865 668.541 430.884L714.216 430.884C715.684 430.865 717.02 430.03 717.681 428.719 720.862 421.903 724.826 415.481 729.493 409.582 733.215 405.354 736.161 400.503 738.195 395.25 740.32 389.67 741.505 383.775 741.699 377.807L741.699 376.074C741.293 348.495 718.92 326.297 691.339 326.107ZM730.084 377.295C729.921 381.944 728.989 386.534 727.328 390.879 725.775 394.781 723.55 398.38 720.752 401.511 716.328 406.872 712.536 412.725 709.451 418.954L673.266 418.954C670.166 412.724 666.362 406.871 661.926 401.511 659.14 398.378 656.927 394.779 655.389 390.879 653.728 386.534 652.796 381.944 652.633 377.295L652.633 375.878C652.997 354.724 670.183 337.73 691.339 337.605L691.339 337.605C712.502 337.73 729.699 354.718 730.084 375.878Z" fill="#FFFFFF"/><path d="M672.36 388.674 693.189 348 693.189 371.546 714.806 367.254 693.189 407.062 693.189 383.949 672.36 388.674Z" fill="#FFFFFF"/><path d="M803.557 495.774C803.557 512.693 789.842 526.408 772.924 526.408 756.005 526.408 742.29 512.693 742.29 495.774 742.29 478.856 756.005 465.141 772.924 465.141 789.842 465.141 803.557 478.856 803.557 495.774Z" fill="#FFFFFF"/><path d="M640.151 495.774C640.151 512.693 626.436 526.408 609.518 526.408 592.599 526.408 578.884 512.693 578.884 495.774 578.884 478.856 592.599 465.141 609.518 465.141 626.436 465.141 640.151 478.856 640.151 495.774Z" fill="#FFFFFF"/><path d="M828.049 552.947C819.225 546.074 809.015 541.198 798.124 538.654 789.928 536.263 781.458 534.94 772.924 534.716 764.369 534.697 755.865 536.026 747.724 538.654 739.568 540.827 731.77 544.169 724.571 548.576 724.099 549.128 723.666 549.679 723.154 550.191 734.605 553.272 745.318 558.629 754.654 565.941 762.021 571.318 766.322 579.934 766.191 589.054L766.191 596.062 834.191 596.062 834.191 565.232C834.31 560.371 832.008 555.768 828.049 552.947Z" fill="#FFFFFF"/><path d="M616.329 589.054C616.338 580.194 620.4 571.824 627.354 566.334L627.827 565.941 628.339 565.586C637.782 558.869 648.227 553.686 659.287 550.23 658.5 549.403 657.791 548.537 657.043 547.671 650.123 543.62 642.658 540.583 634.875 538.654 626.68 536.26 618.21 534.936 609.675 534.716 601.12 534.7 592.617 536.029 584.475 538.654 573.735 541.617 563.605 546.456 554.55 552.947 550.672 555.854 548.348 560.386 548.25 565.232L548.25 596.062 616.329 596.062Z" fill="#FFFFFF"/><path d="M629.953 619.688 629.953 589.054C629.972 584.235 632.245 579.704 636.096 576.808 645.134 570.29 655.27 565.448 666.021 562.515 674.158 559.872 682.665 558.543 691.221 558.578 699.757 558.778 708.23 560.102 716.421 562.515 727.333 565.033 737.561 569.912 746.385 576.808 750.329 579.621 752.616 584.211 752.488 589.054L752.488 619.688Z" fill="#FFFFFF"/><path d="M721.854 519.596C721.854 536.515 708.139 550.23 691.221 550.23 674.302 550.23 660.587 536.515 660.587 519.596 660.587 502.678 674.302 488.963 691.221 488.963 708.139 488.963 721.854 502.678 721.854 519.596Z" fill="#FFFFFF"/></g></svg>