<?xml version="1.0" encoding="utf-8"?>
<!-- Generator: Adobe Illustrator 25.2.0, SVG Export Plug-In . SVG Version: 6.00 Build 0)  -->
<svg version="1.1" id="Layer_1" xmlns="http://www.w3.org/2000/svg" xmlns:xlink="http://www.w3.org/1999/xlink" x="0px" y="0px"
	 viewBox="0 0 595.3 841.9" style="enable-background:new 0 0 595.3 841.9;" xml:space="preserve">
<style type="text/css">
	.st0{fill:#AA5BE8;}
	.st1{fill:#3E7AFF;}
	.st2{fill:#69BCF4;}
</style>
<g>
	<g>
		<path class="st0" d="M284.5,399.9c0-13.4-7.7-25.8-19.6-32L57.1,262.2C33.4,250.3,5,267.3,5,294.2l0.5,248.1
			c0,13.4,7.7,25.8,19.6,32L233,680c23.7,11.9,52.1-5.2,52.1-32L284.5,399.9z M166.4,557.2l-83-42.3c-4.6-2.6-7.7-7.2-7.7-12.9
			v-99.5c0-10.8,11.3-17.5,20.6-12.9l83,42.3c4.6,2.6,7.7,7.2,7.7,12.9v99.5C187.1,555.1,175.7,562.4,166.4,557.2z"/>
	</g>
	<g>
		<path class="st1" d="M261.3,141L94.2,237.4c-16,6.7-31.5-4.1-31.5-4.1c-9.8-6.2-12.9-28.9,14.4-46.9L275.8,76.5
			c10.3-5.7,22.7-6.2,33.5-0.5L512,179.2c25.3,12.9,26.3,49,1,62.9L314.5,351.9c-10.3,5.7-22.7,6.2-33.5,0.5l-32.5-16.5
			c-17.5-16,2.6-29.4,2.6-29.4l124.3-71.7c8.8-5.7,16-18.6,9.8-29.4c-6.7-12.4-22.2-16-34-9.3l-164,94.9c-12.4,7.7-24.8,1-24.8,1
			l-24.2-12.4c-15.5-12.4,4.1-26.8,4.1-26.8l141.3-82c0,0,10.3-6.7,6.2-19.1c0,0-3.1-9.3-11.9-11.9
			C277.8,139.4,271.1,136.9,261.3,141z"/>
	</g>
	<g>
		<path class="st2" d="M455.3,502.5l46.4-25.8c19.6-10.8,31.5-8.8,35.1,9.8l0,0c3.1,15-3.6,27.9-12.9,32.5L432,570.1
			c-1,0.5-1.5,1-2.6,1c-3.6,2.1-8.3,3.6-12.9,3.6l0,0c-14.4,0-23.2-8.8-23.2-23.2V449.4c0-8.8,4.1-16.5,10.8-21.1
			c1.5-1.5,3.6-3.1,5.7-4.1l163-90.3c15.5-6.7,15.5-19.6,15.5-19.6v-36.1c0-27.9-27.9-33-42.3-25.3L332,369.5
			c-11.3,6.2-18.6,18.1-18.6,31.5l0.5,247c0,27.3,29.4,44.4,53.1,30.9L569.7,567c11.3-6.2,18.6-18.1,18.6-31.5V412.3
			c0,0,0-12.9-6.2-19.1c0,0-12.4-13.4-29.4-2.6L440.3,453c0,0-7.2,3.1-7.7,14.4v25.8C431.5,493.2,433.1,512.3,455.3,502.5z"/>
	</g>
</g>
</svg>
